<?xml version="1.0" standalone="no"?>
<!DOCTYPE svg PUBLIC "-//W3C//DTD SVG 20010904//EN"
 "http://www.w3.org/TR/2001/REC-SVG-20010904/DTD/svg10.dtd">
<svg version="1.0" xmlns="http://www.w3.org/2000/svg"
 width="1280.000000pt" height="853.000000pt" viewBox="0 0 1280.000000 853.000000"
 preserveAspectRatio="xMidYMid meet">
<metadata>
Created by potrace 1.15, written by Peter Selinger 2001-2017
</metadata>
<g transform="translate(0.000000,853.000000) scale(0.100000,-0.100000)"
fill="#000000" stroke="none">
<path d="M3850 7470 c-19 -5 -44 -6 -56 -4 -26 7 -90 -19 -123 -49 -107 -98
-65 -313 94 -485 108 -116 218 -127 310 -30 l48 51 23 -44 c213 -406 229 -434
257 -444 20 -6 34 -6 47 3 17 10 22 7 45 -32 14 -23 25 -49 26 -57 0 -8 18
-41 39 -74 22 -33 48 -76 59 -95 21 -38 34 -55 113 -145 127 -144 380 -321
521 -364 49 -15 170 -61 182 -70 5 -4 107 -37 225 -73 500 -154 768 -242 785
-259 5 -5 16 -9 25 -9 8 0 27 -6 42 -14 14 -8 43 -19 65 -26 21 -7 43 -16 48
-20 6 -4 27 -13 48 -20 22 -7 51 -18 65 -26 15 -8 31 -14 35 -14 17 0 258
-116 405 -194 45 -24 82 -42 82 -40 0 3 24 -10 53 -28 28 -19 63 -39 77 -46
78 -38 125 -72 125 -89 0 -12 -7 -17 -20 -16 -11 1 -47 5 -80 8 -33 2 -91 11
-130 19 -175 36 -514 68 -935 87 -210 10 -675 3 -695 -10 -5 -3 40 -8 100 -12
96 -4 86 -5 -80 -7 -276 -3 -602 26 -702 62 -24 8 -43 13 -43 11 0 -7 -171 55
-239 87 -88 41 -161 88 -248 159 -39 33 -77 59 -85 59 -7 0 -41 31 -76 69 -58
65 -61 72 -51 95 14 29 13 30 -184 311 -102 146 -105 150 -84 162 12 7 36 12
54 13 39 0 90 41 109 87 32 74 1 193 -80 315 -113 171 -284 227 -375 123 -17
-20 -31 -40 -31 -44 0 -5 -14 -23 -30 -41 -37 -39 -64 -128 -57 -183 11 -83
73 -178 318 -487 l241 -305 44 0 c41 0 47 -4 121 -80 155 -160 353 -282 558
-345 55 -17 122 -38 149 -46 85 -27 283 -36 851 -39 303 -1 597 -7 655 -13 58
-6 130 -11 161 -11 52 -1 90 -4 342 -31 50 -5 117 -16 147 -24 30 -7 82 -16
115 -20 33 -4 74 -9 90 -12 17 -3 38 -5 47 -5 10 0 20 -4 23 -10 4 -5 22 -9
42 -9 29 0 34 -3 28 -17 -17 -44 -17 -78 2 -94 10 -9 123 -51 252 -94 262 -86
268 -86 289 -16 7 23 17 41 22 41 5 0 59 -24 118 -54 112 -55 286 -166 381
-243 158 -128 360 -386 456 -583 37 -77 105 -246 121 -300 7 -25 20 -63 28
-85 29 -77 32 -75 -111 -75 -71 0 -189 -5 -263 -10 -74 -5 -241 -14 -370 -20
-236 -9 -283 -14 -550 -51 -251 -35 -489 -79 -610 -114 -25 -7 -70 -18 -100
-24 -187 -38 -588 -210 -779 -335 -127 -84 -234 -176 -302 -263 -30 -38 -56
-70 -60 -73 -12 -10 -79 -137 -95 -180 -62 -169 -84 -351 -66 -545 5 -55 17
-122 27 -150 27 -77 73 -171 90 -185 8 -7 15 -19 15 -27 0 -28 173 -193 269
-257 97 -65 200 -122 262 -146 19 -7 48 -19 64 -25 86 -36 145 -57 195 -69 30
-8 91 -24 135 -36 126 -35 145 -39 230 -47 98 -10 417 -9 540 0 106 9 278 54
391 103 22 9 48 20 59 25 45 18 173 80 222 108 143 81 168 95 173 101 3 4 30
22 60 42 162 103 514 442 605 585 21 32 49 74 62 94 12 19 23 43 23 53 0 9 6
29 14 44 13 27 24 73 32 142 3 19 12 73 22 120 25 125 25 738 0 855 -10 44
-20 104 -23 133 -2 29 -8 64 -11 78 l-7 26 139 -7 c77 -4 184 -14 239 -22 55
-8 125 -17 155 -20 30 -3 60 -9 65 -13 9 -7 77 -23 160 -37 17 -3 35 -9 40
-13 6 -5 28 -11 50 -15 22 -4 94 -25 160 -47 350 -114 742 -316 1020 -527 44
-33 95 -68 113 -76 18 -9 32 -21 32 -26 0 -5 5 -9 11 -9 6 0 39 -23 73 -51 72
-61 384 -365 440 -429 21 -25 65 -75 97 -111 33 -36 76 -89 97 -117 20 -28 58
-79 85 -114 196 -262 357 -517 480 -764 21 -42 40 -75 42 -73 7 8 -17 94 -37
134 -18 35 -125 227 -153 273 -70 119 -122 199 -167 255 -21 27 -38 54 -38 60
0 14 -66 107 -175 247 -44 56 -84 109 -90 117 -82 119 -452 476 -660 637 -181
140 -452 310 -642 403 -96 47 -172 87 -169 90 6 6 390 -182 431 -211 16 -11
37 -25 47 -31 41 -24 173 -109 178 -115 7 -8 149 -113 183 -135 15 -9 27 -13
27 -7 0 5 -19 22 -42 37 -45 29 -153 111 -176 132 -7 7 -19 13 -27 13 -7 0
-15 4 -17 8 -2 4 -39 30 -83 57 -44 27 -82 52 -85 55 -25 31 -375 207 -523
264 -113 43 -278 97 -372 120 -260 64 -309 74 -445 87 -52 5 -138 13 -190 19
-52 5 -139 10 -192 10 l-97 0 -6 38 c-6 37 -29 105 -86 254 -16 42 -29 80 -29
84 0 17 -117 234 -158 293 -130 188 -261 336 -382 433 -99 79 -282 193 -410
255 -74 36 -136 66 -137 67 -2 2 4 23 13 49 11 34 13 51 5 65 -8 15 -72 41
-238 96 -232 77 -285 88 -300 61 -8 -13 -18 -9 -68 21 -55 33 -117 66 -330
172 -126 63 -277 132 -292 132 -4 1 -26 9 -48 20 -22 11 -44 19 -48 20 -5 0
-23 7 -40 15 -84 38 -264 107 -358 136 -57 17 -106 35 -109 39 -6 9 -296 100
-319 100 -9 0 -64 16 -121 35 -108 36 -124 40 -116 27 2 -4 45 -21 95 -37 50
-16 89 -30 87 -33 -5 -4 -381 116 -406 129 -19 11 -198 79 -205 79 -14 0 -134
65 -199 107 -218 143 -334 257 -445 438 -18 30 -37 55 -42 55 -4 0 -26 39 -49
87 -35 74 -39 91 -30 113 9 22 0 49 -70 205 -44 99 -86 198 -92 220 -6 22 -20
52 -29 66 -10 14 -45 85 -77 157 -69 151 -141 250 -206 282 -48 23 -137 33
-186 20z m2325 -2035 c90 -30 148 -55 142 -61 -3 -3 -31 6 -63 19 -33 14 -113
42 -179 62 -66 21 -124 41 -129 46 -9 8 91 -21 229 -66z m725 -285 c0 -5 -2
-10 -4 -10 -3 0 -8 5 -11 10 -3 6 -1 10 4 10 6 0 11 -4 11 -10z m-640 -299
c25 -4 -43 -5 -150 -3 -107 2 -199 5 -205 7 -20 7 311 3 355 -4z m670 -41 c0
-5 -5 -10 -11 -10 -5 0 -7 5 -4 10 3 6 8 10 11 10 2 0 4 -4 4 -10z m1691 -577
c13 -16 12 -17 -3 -4 -10 7 -18 15 -18 17 0 8 8 3 21 -13z m135 -135 l29 -33
-32 29 c-31 28 -38 36 -30 36 2 0 16 -15 33 -32z m432 -1005 c2 -13 7 -23 12
-23 7 0 26 -85 22 -101 -1 -4 3 -33 9 -65 50 -288 53 -510 9 -824 -29 -210
-38 -249 -91 -375 -16 -38 -29 -73 -29 -76 0 -15 -75 -118 -142 -196 -212
-249 -501 -468 -818 -620 -88 -43 -308 -111 -395 -123 -33 -5 -80 -13 -105
-19 -60 -13 -339 -14 -435 0 -42 5 -108 19 -148 30 -40 11 -88 24 -107 29
-156 37 -388 116 -414 141 -6 5 -16 9 -23 9 -20 0 -169 86 -238 137 -33 25
-86 69 -117 100 -68 65 -173 218 -188 273 -6 21 -20 67 -32 102 -17 53 -21 87
-21 218 0 137 3 167 27 260 30 112 89 248 149 342 89 138 253 266 495 387 224
111 371 162 692 237 36 8 97 24 137 35 39 10 81 19 93 19 11 0 67 9 123 19
357 68 864 108 1362 107 169 -1 170 -1 173 -23z m1266 -138 c15 -3 27 -8 24
-10 -7 -7 -80 13 -92 25 -8 9 -5 9 14 1 14 -5 38 -12 54 -16z m128 -51 c38
-15 66 -29 63 -32 -6 -6 -145 50 -152 61 -4 6 0 8 8 5 8 -3 44 -18 81 -34z"/>
</g>
</svg>
